# xmcd CD database file
#
# Track frame offsets:
#	150
#	29589
#	56600
#	79238
#	103811
#	137519
#	165067
#	198208
#	218675
#	246941
#
# Disc length: 3581 seconds
#
# Revision: 0
# Processed by: cddbd v1.5.2PL0 Copyright (c) Steve Scherf et al.
# Submitted via: CDex 1.99.1
#
DISCID=800dfb0a
DTITLE=Moulin, Marc (1942-2008) - Top Secret
DYEAR=2001
DGENRE=Jazz
TTITLE0=In The Dark
TTITLE1=What?
TTITLE2=Bottle
TTITLE3=Theo
TTITLE4=Organ
TTITLE5=In My Room
TTITLE6=Teno
TTITLE7=Day Fever
TTITLE8=It's To Say
TTITLE9=Feet
EXTD=YEAR: 2001
EXTT0=
EXTT1=
EXTT2=
EXTT3=
EXTT4=
EXTT5=
EXTT6=
EXTT7=
EXTT8=
EXTT9=
PLAYORDER=
